<svg enable-background="new 0 0 512 512" height="512" viewBox="0 0 512 512" width="512" xmlns="http://www.w3.org/2000/svg"><g id="_x36_8_x2C__Book_x2C__Directory_x2C__Phone_x2C__Phone_Book"><g><g><path d="m396 348.5h40v30h-40z"/><path d="m396 148.5h40v30h-40z"/><path d="m396 308.5h40v30h-40z"/><path d="m396 268.5h40v30h-40z"/><path d="m396 188.5h40v30h-40z"/><path d="m396 228.5h40v30h-40z"/><path d="m294.139 315.494c-1.877 2.329-5.342 2.485-7.429.398l-49.682-49.682c-2.126-2.125-1.907-5.637.466-7.482 16.201-12.596 18.071-36.998 3.311-51.759-13.473-13.472-35.4-13.383-49.054.272-11.57 11.57-7.08 30.698-1.276 44.708 25.751 62.157 123.267 141.191 155.224 109.24 13.599-13.6 13.72-35.605.272-49.055-13.922-13.921-37.932-13.904-51.832 3.36z"/><path d="m451 438.5c-8.272 0-15 6.728-15 15s6.728 15 15 15c8.271 0 15-6.728 15-15s-6.729-15-15-15z"/><circle cx="471" cy="83.5" r="10"/><circle cx="471" cy="363.5" r="10"/><circle cx="41" cy="453.5" r="10"/><circle cx="51" cy="263.5" r="10"/><circle cx="61" cy="53.5" r="10"/><circle cx="41" cy="133.5" r="10"/><path d="m106 259.375c5.816 2.066 9.999 7.609 9.999 14.125s-4.183 12.059-9.999 14.125v.875h25c-8.271 0-15-6.728-15-15s6.729-15 15-15h-25z"/><path d="m106 319.375c5.816 2.066 9.999 7.609 9.999 14.125s-4.183 12.059-9.999 14.125v.875h25c-8.271 0-15-6.728-15-15s6.729-15 15-15h-25z"/><path d="m106 379.375c5.816 2.066 9.999 7.609 9.999 14.125s-4.183 12.059-9.999 14.125v.875h25c-8.271 0-15-6.728-15-15s6.729-15 15-15h-25z"/><path d="m436 48.5h-330v30.876c5.816 2.066 9.999 7.609 9.999 14.124s-4.183 12.059-9.999 14.124v.876h25c-8.271 0-15-6.729-15-15s6.729-15 15-15c16.542 0 30 13.458 30 30s-13.458 30-30 30c16.542 0 30 13.458 30 30s-13.458 30-30 30c16.542 0 30 13.458 30 30s-13.458 30-30 30c16.542 0 30 13.458 30 30s-13.458 30-30 30c16.542 0 30 13.458 30 30s-13.458 30-30 30c16.542 0 30 13.458 30 30s-13.458 30-30 30h-25v30h280v-30h-175c-2.761 0-5-2.238-5-5s2.239-5 5-5h175c0-30.938 0-175.139 0-200h-85c-2.762 0-5-2.239-5-5s2.238-5 5-5h85c0-14.781 0-60.663 0-75 0-2.761 2.238-5 5-5h45zm-83.23 319.76c-6.793 6.794-15.719 10.239-26.529 10.24-.729-.21-31.626 2.769-82.129-41.249-28.541-24.877-52.046-55.335-62.874-81.474-9.997-24.129-8.806-43.357 3.443-55.607 17.643-17.642 45.901-17.566 63.196-.272 17.351 17.353 17.244 45.441-.049 62.971l42.224 42.225c17.596-17.358 45.701-17.32 62.99-.029 17.348 17.347 17.226 45.697-.272 63.195zm-31.77-119.76c2.762 0 5 2.239 5 5s-2.238 5-5 5h-40c-2.762 0-5-2.239-5-5s2.238-5 5-5zm20-90h-160c-2.761 0-5-2.239-5-5s2.239-5 5-5h160c2.762 0 5 2.239 5 5s-2.238 5-5 5zm0-30h-160c-2.761 0-5-2.239-5-5s2.239-5 5-5h160c2.762 0 5 2.239 5 5s-2.238 5-5 5zm0-30h-110c-2.761 0-5-2.239-5-5s2.239-5 5-5h110c2.762 0 5 2.239 5 5s-2.238 5-5 5z"/><path d="m106 139.376c5.816 2.066 9.999 7.609 9.999 14.124s-4.183 12.059-9.999 14.124v.876h25c-8.271 0-15-6.729-15-15s6.729-15 15-15h-25z"/><path d="m106 199.376c5.816 2.066 9.999 7.609 9.999 14.124s-4.183 12.059-9.999 14.124v.876h25c-8.271 0-15-6.729-15-15s6.729-15 15-15h-25z"/><path d="m86 128.5h45c11.028 0 20-8.972 20-20s-8.972-20-20-20c-2.761 0-5 2.239-5 5s2.239 5 5 5c5.514 0 10 4.486 10 10s-4.486 10-10 10h-45c-5.514 0-10-4.486-10-10s4.486-10 10-10h14.999c2.761 0 5-2.239 5-5s-2.239-5-5-5h-14.999c-11.028 0-20 8.972-20 20s8.972 20 20 20z"/><path d="m86 158.5h14.999c2.761 0 5-2.239 5-5s-2.239-5-5-5h-14.999c-11.028 0-20 8.972-20 20s8.972 20 20 20h45c11.028 0 20-8.972 20-20s-8.972-20-20-20c-2.761 0-5 2.239-5 5s2.239 5 5 5c5.514 0 10 4.486 10 10s-4.486 10-10 10h-45c-5.514 0-10-4.486-10-10s4.486-10 10-10z"/><path d="m86 218.5h14.999c2.761 0 5-2.239 5-5s-2.239-5-5-5h-14.999c-11.028 0-20 8.972-20 20s8.972 20 20 20h45c11.028 0 20-8.972 20-20s-8.972-20-20-20c-2.761 0-5 2.239-5 5s2.239 5 5 5c5.514 0 10 4.486 10 10s-4.486 10-10 10h-45c-5.514 0-10-4.486-10-10s4.486-10 10-10z"/><path d="m86 278.5h14.999c2.761 0 5-2.238 5-5s-2.239-5-5-5h-14.999c-11.028 0-20 8.972-20 20s8.972 20 20 20h45c11.028 0 20-8.972 20-20s-8.972-20-20-20c-2.761 0-5 2.238-5 5s2.239 5 5 5c5.514 0 10 4.486 10 10s-4.486 10-10 10h-45c-5.514 0-10-4.486-10-10s4.486-10 10-10z"/><path d="m86 338.5h14.999c2.761 0 5-2.238 5-5s-2.239-5-5-5h-14.999c-11.028 0-20 8.972-20 20s8.972 20 20 20h45c11.028 0 20-8.972 20-20s-8.972-20-20-20c-2.761 0-5 2.238-5 5s2.239 5 5 5c5.514 0 10 4.486 10 10s-4.486 10-10 10h-45c-5.514 0-10-4.486-10-10s4.486-10 10-10z"/><path d="m151 408.5c0-11.028-8.972-20-20-20-2.761 0-5 2.238-5 5s2.239 5 5 5c5.514 0 10 4.486 10 10s-4.486 10-10 10h-45c-5.514 0-10-4.486-10-10s4.486-10 10-10h14.999c2.761 0 5-2.238 5-5s-2.239-5-5-5h-14.999c-11.028 0-20 8.972-20 20s8.972 20 20 20h45c11.028 0 20-8.972 20-20z"/></g></g></g></svg>