<?xml version="1.0" encoding="utf-8"?>
<!-- Generator: Adobe Illustrator 18.0.0, SVG Export Plug-In . SVG Version: 6.00 Build 0)  -->
<!DOCTYPE svg PUBLIC "-//W3C//DTD SVG 1.1//EN" "http://www.w3.org/Graphics/SVG/1.1/DTD/svg11.dtd">
<svg version="1.1" id="Twoo" xmlns="http://www.w3.org/2000/svg" xmlns:xlink="http://www.w3.org/1999/xlink" x="0px" y="0px"
	 viewBox="0 0 120 120" enable-background="new 0 0 120 120" xml:space="preserve">
<g>
	<g>
		<path fill="#55CEBA" d="M83.5,84.8c0,3.3-2.7,6-6,6h-44c-3.3,0-6-2.7-6-6V26.4c0-3.3,2.7-6,6-6h44c3.3,0,6,2.7,6,6V84.8z"/>
		<path fill="#1C1F26" d="M77.5,92.8h-44c-4.4,0-8-3.6-8-8V26.4c0-4.4,3.6-8,8-8h44c4.4,0,8,3.6,8,8v58.4
			C85.5,89.2,81.9,92.8,77.5,92.8z M33.5,22.4c-2.2,0-4,1.8-4,4v58.4c0,2.2,1.8,4,4,4h44c2.2,0,4-1.8,4-4V26.4c0-2.2-1.8-4-4-4H33.5
			z"/>
	</g>
	<g>
		<path fill="#FFFFFF" d="M92.9,93.6c0,3.3-2.7,6-6,6h-44c-3.3,0-6-2.7-6-6V35.2c0-3.3,2.7-6,6-6h44c3.3,0,6,2.7,6,6V93.6z"/>
		<path fill="#1C1F26" d="M86.9,101.6h-44c-4.4,0-8-3.6-8-8V35.2c0-4.4,3.6-8,8-8h44c4.4,0,8,3.6,8,8v58.4
			C94.9,98,91.3,101.6,86.9,101.6z M42.9,31.2c-2.2,0-4,1.8-4,4v58.4c0,2.2,1.8,4,4,4h44c2.2,0,4-1.8,4-4V35.2c0-2.2-1.8-4-4-4H42.9
			z"/>
	</g>
	<g>
		<path fill="#55CEBA" d="M61.3,52.8c0,1.6-1.3,2.9-2.9,2.9H46.7c-1.6,0-2.9-1.3-2.9-2.9V42c0-1.6,1.3-2.9,2.9-2.9h11.7
			c1.6,0,2.9,1.3,2.9,2.9C61.3,42,61.3,52.8,61.3,52.8z"/>
	</g>
	<g>
		<path fill="#1C1F26" d="M85.9,66H44.2c-1.1,0-2-0.9-2-2s0.9-2,2-2h41.7c1.1,0,2,0.9,2,2S87,66,85.9,66z"/>
	</g>
	<g>
		<path fill="#1C1F26" d="M85.9,77H44.2c-1.1,0-2-0.9-2-2s0.9-2,2-2h41.7c1.1,0,2,0.9,2,2S87,77,85.9,77z"/>
	</g>
	<g>
		<g>
			<path fill="#1C1F26" d="M85.9,55H69.2c-1.1,0-2-0.9-2-2s0.9-2,2-2h16.7c1.1,0,2,0.9,2,2S87,55,85.9,55z"/>
		</g>
		<g>
			<path fill="#1C1F26" d="M85.9,44H69.2c-1.1,0-2-0.9-2-2s0.9-2,2-2h16.7c1.1,0,2,0.9,2,2S87,44,85.9,44z"/>
		</g>
	</g>
	<g>
		<path fill="#1C1F26" d="M85.9,88H44.2c-1.1,0-2-0.9-2-2s0.9-2,2-2h41.7c1.1,0,2,0.9,2,2S87,88,85.9,88z"/>
	</g>
</g>
</svg>
