<svg id="Capa_1" enable-background="new 0 0 512 512" height="512" viewBox="0 0 512 512" width="512" xmlns="http://www.w3.org/2000/svg"><g><g><path d="m436 105v305l-15 101.87-375 .13v-512h285l15.25 89.75z" fill="#fff5f5"/><path d="m436 105v305l-15 101.87-195 .13v-512h105l15.25 89.75z" fill="#efe2dd"/><path d="m436 105-105-105v105z" fill="#cdbfba"/></g><g><path d="m106 182h120v30h-120z" fill="#596c76"/></g><g><path d="m106 242h180v30h-180z" fill="#596c76"/></g><path d="m226 242h60v30h-60z" fill="#465a61"/><g><g><path d="m151 452c-24.813 0-45-20.187-45-45s20.187-45 45-45 45 20.187 45 45-20.187 45-45 45z" fill="#ff637b"/><circle cx="151" cy="407" fill="#e63950" r="15"/></g></g><path d="m466 410-45 101.87-45-101.87 45-11.12z" fill="#ffbfab"/><path d="m466 410-45 101.87v-112.99z" fill="#ffa78f"/><g><path d="m451 167h-60c-8.28 0-15 6.72-15 15v228h90v-228c0-8.28-6.72-15-15-15z" fill="#ff637b"/></g><path d="m466 182v228h-45v-243h30c8.28 0 15 6.72 15 15z" fill="#e63950"/><g fill="#465a61"><path d="m376 152h90v30h-90z"/><path d="m421 152h45v30h-45z"/></g></g></svg>