<svg id="Layer_1" enable-background="new 0 0 64 64" height="512" viewBox="0 0 64 64" width="512" xmlns="http://www.w3.org/2000/svg"><g><g id="LINE_328_"><g><path d="m34.149 50.938h-21.15c-.553 0-1-.448-1-1s.447-1 1-1h21.15c.553 0 1 .448 1 1s-.447 1-1 1z"/></g></g><g id="LINE_329_"><g><path d="m10.999 48.938c-.553 0-1-.448-1-1v-38c0-.552.447-1 1-1 .552 0 1 .448 1 1v38c0 .552-.448 1-1 1z"/></g></g><g id="ARC_152_"><g><path d="m12.999 50.938c-1.654 0-3-1.346-3-3 0-.552.447-1 1-1 .552 0 1 .448 1 1 0 .551.448 1 1 1s1 .448 1 1-.448 1-1 1z"/></g></g><g id="LINE_369_"><g><path d="m31.231 38.938h-14.232c-.553 0-1-.448-1-1s.447-1 1-1h14.232c.552 0 1 .448 1 1s-.448 1-1 1z"/></g></g><g id="LINE_371_"><g><path d="m46.999 33.381c-.553 0-1-.448-1-1v-17.443c0-.552.447-1 1-1 .552 0 1 .448 1 1v17.443c0 .552-.448 1-1 1z"/></g></g><g id="LWPOLYLINE_35_"><g><path d="m45.115 57.062c-.12 0-.24-.021-.354-.065-5.205-1.973-8.633-7.038-8.529-12.603v-4.656c0-.44.287-.828.708-.957 2.712-.828 5.272-2.062 7.609-3.668.341-.234.792-.234 1.133 0 2.337 1.606 4.896 2.84 7.609 3.668.42.128.708.517.708.957v4.674c.103 5.546-3.324 10.611-8.529 12.584-.115.045-.235.066-.355.066zm-6.884-16.593v3.944c-.084 4.54 2.729 8.825 6.884 10.572 4.154-1.748 6.968-6.032 6.884-10.554v-3.962c-2.431-.808-4.74-1.924-6.884-3.327-2.143 1.402-4.454 2.519-6.884 3.327z"/></g></g><g id="LINE_384_"><g><path d="m39.999 8.938h-27c-.553 0-1-.448-1-1s.447-1 1-1h27c.552 0 1 .448 1 1s-.448 1-1 1z"/></g></g><g id="LINE_385_"><g><path d="m46.999 15.938c-.256 0-.512-.098-.707-.293l-7-7c-.391-.391-.391-1.023 0-1.414s1.023-.391 1.414 0l7 7c.391.391.391 1.023 0 1.414-.195.195-.451.293-.707.293z"/></g></g><g id="LINE_386_"><g><path d="m46.999 15.938h-5c-.553 0-1-.448-1-1s.447-1 1-1h5c.552 0 1 .448 1 1s-.448 1-1 1z"/></g></g><g id="LINE_387_"><g><path d="m39.999 13.938c-.553 0-1-.448-1-1v-5c0-.552.447-1 1-1 .552 0 1 .448 1 1v5c0 .552-.448 1-1 1z"/></g></g><g id="ARC_178_"><g><path d="m41.999 15.938c-1.654 0-3-1.346-3-3 0-.552.447-1 1-1 .552 0 1 .448 1 1 0 .551.448 1 1 1s1 .448 1 1-.448 1-1 1z"/></g></g><g id="ARC_179_"><g><path d="m10.999 10.938c-.553 0-1-.448-1-1 0-1.654 1.346-3 3-3 .552 0 1 .448 1 1s-.448 1-1 1-1 .449-1 1c0 .552-.448 1-1 1z"/></g></g><g id="LINE_388_"><g><path d="m40.999 32.938h-24c-.553 0-1-.448-1-1s.447-1 1-1h24c.552 0 1 .448 1 1s-.448 1-1 1z"/></g></g><g id="LINE_389_"><g><path d="m40.999 26.938h-24c-.553 0-1-.448-1-1s.447-1 1-1h24c.552 0 1 .448 1 1s-.448 1-1 1z"/></g></g><g id="LINE_390_"><g><path d="m40.999 20.938h-24c-.553 0-1-.448-1-1s.447-1 1-1h24c.552 0 1 .448 1 1s-.448 1-1 1z"/></g></g><g id="LINE_391_"><g><path d="m34.062 14.938h-17.063c-.553 0-1-.448-1-1s.447-1 1-1h17.063c.552 0 1 .448 1 1s-.449 1-1 1z"/></g></g></g></svg>