<?xml version="1.0" encoding="iso-8859-1"?>
<!-- Generator: Adobe Illustrator 19.0.0, SVG Export Plug-In . SVG Version: 6.00 Build 0)  -->
<svg version="1.1" id="Layer_1" xmlns="http://www.w3.org/2000/svg" xmlns:xlink="http://www.w3.org/1999/xlink" x="0px" y="0px"
	 viewBox="0 0 510.67 510.67" style="enable-background:new 0 0 510.67 510.67;" xml:space="preserve">
<g>
	<path style="fill:#4CC7BB;" d="M102.634,34.336v343.378l42.688-42.688c4.746-4.744,12.438-4.744,17.184,0
		c4.744,4.745,4.744,12.438,0,17.184l-59.872,59.872v67.115l58.688-58.688c4.746-4.744,12.438-4.744,17.184,0
		c4.744,4.745,4.744,12.438,0,17.184l-58.713,58.713h65.378l60.092-60.092c4.746-4.744,12.438-4.744,17.184,0
		c4.744,4.745,4.744,12.438,0,17.184l-42.908,42.908h210.428V34.336H102.634z M340.335,413.335c-28.673,0-52-23.327-52-52
		s23.327-52,52-52s52,23.327,52,52S369.008,413.335,340.335,413.335z M393.644,230.362H138.957c-6.71,0-12.15-5.44-12.15-12.15
		s5.44-12.15,12.15-12.15h254.687c6.71,0,12.15,5.44,12.15,12.15S400.354,230.362,393.644,230.362z M393.644,167.102H138.957
		c-6.71,0-12.15-5.44-12.15-12.15s5.44-12.15,12.15-12.15h254.687c6.71,0,12.15,5.44,12.15,12.15S400.354,167.102,393.644,167.102z
		 M393.644,103.841H138.957c-6.71,0-12.15-5.44-12.15-12.15s5.44-12.15,12.15-12.15h254.687c6.71,0,12.15,5.44,12.15,12.15
		S400.354,103.841,393.644,103.841z"/>
	<g>
		<path d="M431.151,510.67H79.519c-6.71,0-12.15-5.44-12.15-12.15V12.15c0-6.71,5.44-12.15,12.15-12.15h351.633
			c6.71,0,12.15,5.44,12.15,12.15v486.37C443.302,505.229,437.861,510.67,431.151,510.67z M208.572,486.369h210.429V24.301H91.669
			v343.378l42.688-42.688c4.746-4.744,12.438-4.744,17.184,0c4.744,4.745,4.744,12.438,0,17.184l-59.871,59.87v67.118l58.689-58.689
			c4.744-4.744,12.437-4.744,17.183,0c4.744,4.745,4.744,12.438-0.001,17.184l-58.714,58.713h65.381l60.091-60.092
			c4.746-4.744,12.438-4.744,17.184,0c4.744,4.745,4.744,12.438,0,17.184L208.572,486.369z M382.678,220.327H127.991
			c-6.71,0-12.15-5.44-12.15-12.15s5.44-12.15,12.15-12.15h254.688c6.71,0,12.15,5.44,12.15,12.15S389.389,220.327,382.678,220.327z
			 M382.678,157.066H127.991c-6.71,0-12.15-5.44-12.15-12.15s5.44-12.15,12.15-12.15h254.688c6.71,0,12.15,5.44,12.15,12.15
			S389.389,157.066,382.678,157.066z M382.678,93.806H127.991c-6.71,0-12.15-5.44-12.15-12.15s5.44-12.15,12.15-12.15h254.688
			c6.71,0,12.15,5.44,12.15,12.15S389.389,93.806,382.678,93.806z M332.335,388.335L332.335,388.335"/>
	</g>
	<path style="fill:#FFD46A;" d="M340.335,333.335c-15.439,0-28,12.561-28,28s12.561,28,28,28s28-12.561,28-28
		S355.773,333.335,340.335,333.335z"/>
</g>
<g>
	<path d="M330.335,403.335c-28.673,0-52-23.327-52-52s23.327-52,52-52s52,23.327,52,52S359.008,403.335,330.335,403.335z
		 M330.335,323.335c-15.439,0-28,12.561-28,28s12.561,28,28,28s28-12.561,28-28S345.773,323.335,330.335,323.335z"/>
</g>
<g>
</g>
<g>
</g>
<g>
</g>
<g>
</g>
<g>
</g>
<g>
</g>
<g>
</g>
<g>
</g>
<g>
</g>
<g>
</g>
<g>
</g>
<g>
</g>
<g>
</g>
<g>
</g>
<g>
</g>
</svg>
