<svg xmlns="http://www.w3.org/2000/svg" height="511pt" version="1.1" viewBox="-25 0 511 511.99967" width="511pt">
<g id="surface1">
<path d="M 234.601562 439.933594 C 230.265625 436.507812 223.980469 437.246094 220.554688 441.582031 L 220.386719 441.792969 C 216.964844 446.125 217.703125 452.414062 222.039062 455.835938 C 223.875 457.289062 226.058594 457.992188 228.230469 457.992188 C 231.183594 457.992188 234.109375 456.6875 236.082031 454.1875 L 236.25 453.976562 C 239.675781 449.644531 238.9375 443.355469 234.601562 439.933594 Z M 234.601562 439.933594 " style=" stroke:none;fill-rule:nonzero;fill:rgb(0%,0%,0%);fill-opacity:1;" />
<path d="M 225.902344 72.789062 C 227.734375 74.226562 229.910156 74.921875 232.074219 74.921875 C 235.039062 74.921875 237.972656 73.609375 239.945312 71.097656 L 240.113281 70.886719 C 243.523438 66.542969 242.765625 60.257812 238.421875 56.84375 C 234.078125 53.433594 227.789062 54.191406 224.378906 58.535156 L 224.214844 58.746094 C 220.804688 63.089844 221.5625 69.378906 225.902344 72.789062 Z M 225.902344 72.789062 " style=" stroke:none;fill-rule:nonzero;fill:rgb(0%,0%,0%);fill-opacity:1;" />
<path d="M 452.738281 440.496094 L 337.675781 325.4375 L 395.269531 252.449219 C 400.246094 247.042969 402.984375 240.039062 402.984375 232.667969 C 402.984375 216.558594 389.878906 203.453125 373.769531 203.453125 L 273.835938 203.453125 L 313.125 35.75 C 313.222656 35.324219 313.292969 34.894531 313.335938 34.460938 C 315.296875 23.902344 311.226562 12.953125 302.753906 6.257812 C 290.152344 -3.695312 271.800781 -1.542969 261.839844 11.0625 L 249.152344 27.140625 C 245.730469 31.476562 246.472656 37.765625 250.808594 41.1875 C 255.144531 44.609375 261.433594 43.867188 264.855469 39.53125 L 277.539062 23.457031 C 280.65625 19.507812 286.40625 18.832031 290.355469 21.953125 C 293.117188 24.132812 294.386719 27.761719 293.589844 31.191406 C 293.511719 31.527344 293.453125 31.867188 293.410156 32.207031 L 251.484375 211.171875 C 250.789062 214.148438 251.488281 217.273438 253.382812 219.667969 C 255.28125 222.058594 258.167969 223.453125 261.21875 223.453125 L 373.769531 223.453125 C 378.847656 223.453125 382.980469 227.585938 382.980469 232.667969 C 382.980469 235.046875 382.078125 237.300781 380.4375 239.023438 C 380.222656 239.246094 380.019531 239.484375 379.824219 239.730469 L 323.433594 311.195312 L 170.875 158.632812 L 222.132812 93.671875 C 225.554688 89.335938 224.8125 83.050781 220.476562 79.628906 C 216.140625 76.207031 209.855469 76.949219 206.433594 81.285156 L 156.636719 144.394531 L 46.019531 33.78125 C 35.621094 23.378906 18.699219 23.382812 8.300781 33.78125 C 8.296875 33.78125 8.296875 33.78125 8.296875 33.78125 C -2.101562 44.179688 -2.101562 61.101562 8.296875 71.5 L 123.359375 186.5625 L 65.769531 259.550781 C 60.789062 264.960938 58.054688 271.964844 58.054688 279.332031 C 58.054688 295.441406 71.15625 308.546875 87.265625 308.546875 L 187.199219 308.546875 L 147.914062 476.25 C 147.816406 476.671875 147.746094 477.101562 147.703125 477.527344 C 145.738281 488.089844 149.808594 499.046875 158.28125 505.742188 C 163.617188 509.953125 169.980469 512 176.304688 512 C 184.917969 512 193.453125 508.207031 199.199219 500.9375 L 211.328125 485.5625 C 214.75 481.226562 214.007812 474.9375 209.671875 471.515625 C 205.335938 468.09375 199.050781 468.835938 195.628906 473.171875 L 183.5 488.542969 C 180.378906 492.492188 174.628906 493.164062 170.679688 490.046875 C 167.917969 487.867188 166.648438 484.238281 167.449219 480.804688 C 167.523438 480.472656 167.582031 480.140625 167.625 479.804688 L 209.554688 300.828125 C 210.25 297.855469 209.550781 294.726562 207.652344 292.332031 C 205.757812 289.941406 202.871094 288.546875 199.816406 288.546875 L 87.269531 288.546875 C 82.1875 288.546875 78.054688 284.414062 78.054688 279.332031 C 78.054688 276.953125 78.960938 274.699219 80.597656 272.976562 C 80.816406 272.75 81.019531 272.515625 81.210938 272.273438 L 137.601562 200.804688 L 290.160156 353.367188 L 238.347656 419.03125 C 234.929688 423.367188 235.667969 429.65625 240.003906 433.078125 C 241.839844 434.523438 244.023438 435.226562 246.195312 435.226562 C 249.148438 435.226562 252.078125 433.921875 254.050781 431.421875 L 304.402344 367.605469 L 415.015625 478.222656 C 420.042969 483.246094 426.742188 486.011719 433.878906 486.011719 C 441.015625 486.011719 447.714844 483.246094 452.738281 478.222656 C 463.136719 467.820312 463.136719 450.898438 452.738281 440.496094 Z M 438.59375 464.078125 C 437.347656 465.324219 435.671875 466.011719 433.878906 466.011719 C 432.082031 466.011719 430.40625 465.324219 429.160156 464.078125 L 22.441406 57.359375 C 19.886719 54.800781 19.886719 50.480469 22.441406 47.921875 C 25 45.367188 29.320312 45.367188 31.878906 47.921875 L 317.351562 333.398438 C 317.351562 333.398438 317.351562 333.398438 317.355469 333.398438 L 438.597656 454.640625 C 441.152344 457.199219 441.152344 461.519531 438.59375 464.078125 Z M 438.59375 464.078125 " style=" stroke:none;fill-rule:nonzero;fill:rgb(0%,0%,0%);fill-opacity:1;" />
</g>
</svg>