<svg xmlns="http://www.w3.org/2000/svg" height="511pt" version="1.1" viewBox="-83 0 511 511.99862" width="511pt">
<g id="surface1">
<path d="M 168.332031 72.777344 C 170.164062 74.222656 172.347656 74.921875 174.511719 74.921875 C 177.46875 74.921875 180.402344 73.613281 182.375 71.109375 L 182.542969 70.898438 C 185.957031 66.558594 185.210938 60.273438 180.871094 56.855469 C 176.53125 53.4375 170.246094 54.1875 166.828125 58.523438 L 166.664062 58.734375 C 163.246094 63.074219 163.992188 69.359375 168.332031 72.777344 Z M 168.332031 72.777344 " style=" stroke:none;fill-rule:nonzero;fill:rgb(0%,0%,0%);fill-opacity:1;" />
<path d="M 152.113281 471.5 C 147.777344 468.078125 141.488281 468.820312 138.070312 473.15625 L 125.941406 488.527344 C 124.429688 490.441406 122.265625 491.648438 119.84375 491.933594 C 117.421875 492.21875 115.035156 491.542969 113.121094 490.03125 C 110.359375 487.851562 109.089844 484.222656 109.890625 480.792969 C 109.96875 480.457031 110.027344 480.121094 110.066406 479.785156 L 151.992188 300.816406 C 152.6875 297.84375 151.988281 294.714844 150.09375 292.324219 C 148.195312 289.933594 145.308594 288.535156 142.253906 288.535156 L 29.710938 288.535156 C 24.632812 288.535156 20.5 284.40625 20.5 279.324219 C 20.5 276.945312 21.402344 274.6875 23.042969 272.96875 C 23.257812 272.746094 23.460938 272.507812 23.65625 272.261719 L 164.570312 93.671875 C 167.992188 89.335938 167.25 83.046875 162.917969 79.625 C 158.578125 76.207031 152.292969 76.945312 148.871094 81.28125 L 8.214844 259.542969 C 3.234375 264.949219 0.5 271.953125 0.5 279.324219 C 0.5 295.429688 13.605469 308.535156 29.710938 308.535156 L 129.640625 308.535156 L 90.355469 476.234375 C 90.257812 476.65625 90.1875 477.085938 90.144531 477.515625 C 88.179688 488.074219 92.25 499.03125 100.722656 505.722656 C 105.917969 509.828125 112.203125 512 118.722656 512 C 119.867188 512 121.019531 511.929688 122.175781 511.796875 C 129.902344 510.890625 136.8125 507.027344 141.640625 500.917969 L 153.769531 485.546875 C 157.191406 481.210938 156.449219 474.921875 152.113281 471.5 Z M 152.113281 471.5 " style=" stroke:none;fill-rule:nonzero;fill:rgb(0%,0%,0%);fill-opacity:1;" />
<path d="M 316.203125 203.449219 L 216.273438 203.449219 L 255.558594 35.75 C 255.660156 35.324219 255.730469 34.894531 255.769531 34.46875 C 257.734375 23.90625 253.664062 12.953125 245.191406 6.257812 C 232.589844 -3.699219 214.234375 -1.542969 204.277344 11.0625 L 191.589844 27.140625 C 188.171875 31.476562 188.914062 37.765625 193.246094 41.183594 C 197.582031 44.605469 203.871094 43.867188 207.292969 39.527344 L 219.972656 23.457031 C 223.09375 19.507812 228.84375 18.832031 232.792969 21.953125 C 235.554688 24.132812 236.824219 27.761719 236.027344 31.191406 C 235.949219 31.527344 235.890625 31.863281 235.847656 32.199219 L 193.921875 211.167969 C 193.226562 214.140625 193.925781 217.269531 195.824219 219.660156 C 197.71875 222.050781 200.605469 223.449219 203.660156 223.449219 L 316.203125 223.449219 C 321.285156 223.449219 325.417969 227.582031 325.417969 232.660156 C 325.417969 235.039062 324.511719 237.296875 322.871094 239.015625 C 322.65625 239.242188 322.453125 239.476562 322.261719 239.722656 L 180.789062 419.015625 C 177.367188 423.351562 178.109375 429.640625 182.445312 433.0625 C 184.28125 434.507812 186.464844 435.210938 188.632812 435.210938 C 191.589844 435.210938 194.515625 433.90625 196.488281 431.40625 L 337.699219 252.441406 C 342.679688 247.035156 345.417969 240.03125 345.417969 232.660156 C 345.417969 216.550781 332.3125 203.449219 316.203125 203.449219 Z M 316.203125 203.449219 " style=" stroke:none;fill-rule:nonzero;fill:rgb(0%,0%,0%);fill-opacity:1;" />
<path d="M 177.050781 439.925781 C 172.71875 436.496094 166.429688 437.230469 163.003906 441.558594 L 162.835938 441.769531 C 159.40625 446.097656 160.136719 452.386719 164.46875 455.816406 C 166.304688 457.273438 168.496094 457.976562 170.667969 457.976562 C 173.621094 457.976562 176.542969 456.675781 178.515625 454.183594 L 178.683594 453.972656 C 182.109375 449.640625 181.378906 443.351562 177.050781 439.925781 Z M 177.050781 439.925781 " style=" stroke:none;fill-rule:nonzero;fill:rgb(0%,0%,0%);fill-opacity:1;" />
</g>
</svg>