<svg id="Capa_1" enable-background="new 0 0 497 497" height="512" viewBox="0 0 497 497" width="512" xmlns="http://www.w3.org/2000/svg"><g><g><path d="m231.133 392.084c-.499-12.185-12.159-20.763-23.938-17.606l-69.583 18.645v86.829h49.662c27.221-18.543 44.116-50.084 43.945-84.033-.007-1.347-.036-2.619-.086-3.835z" fill="#8288cb"/><path d="m54.647 415.353c-12.074 3.235-17.803 17.039-11.573 27.875 1.123 1.953 2.264 3.885 3.425 5.797 20.969 34.349 61.813 54.214 103.88 46.208 13.649-2.597 26.084-7.917 36.895-15.281-20.183-27.204-36.77-56.374-49.662-86.829z" fill="#676fb2"/></g><g><path d="m126.42 363.628 82.7-22.159c8.477-2.271 14.312-10.044 14.092-18.817-.564-22.518 1.954-46.477 10.708-72.166 12.981-38.09 1.968-66.542-3.521-83.764-14.739-46.248-56.836-76.228-102.342-77.978l-55.213 142.374z" fill="#8288cb"/><path d="m128.057 88.743c-7.322-.282-14.732.165-22.13 1.395-41.903 6.725-76.354 36.573-89.127 77.045-22.734 72.032-21.113 144.771-2.834 207.256 2.911 9.95 13.197 15.784 23.21 13.101l89.244-23.913c-29.819-88.328-29.888-185.158 1.637-274.884z" fill="#676fb2"/></g><g><path d="m190.298 245.405c-3.14 0-6.305-.982-9.007-3.015l-14.142-10.641-13.929 10.48c-5.342 4.019-12.697 4.019-18.037 0l-16.02-12.053-14.768 11.111c-5.341 4.02-12.696 4.019-18.037 0l-13.516-10.169-13.516 10.169c-6.619 4.983-16.024 3.651-21.005-2.967-4.98-6.62-3.652-16.023 2.968-21.004l22.534-16.956c5.34-4.019 12.697-4.019 18.037 0l13.516 10.169 14.768-11.111c5.34-4.019 12.697-4.019 18.037 0l16.02 12.053 13.929-10.48c5.341-4.019 12.696-4.019 18.037 0l23.16 17.427c6.62 4.981 7.948 14.385 2.968 21.004-2.947 3.918-7.444 5.982-11.997 5.983z" fill="#4c5699"/></g><g><path d="m162.248 169.797c-3.416 0-6.85-1.161-9.665-3.536l-11.661-9.838-10.594 8.938c-5.586 4.714-13.758 4.714-19.346 0l-9.527-8.038-9.526 8.038c-6.332 5.342-15.796 4.54-21.137-1.791-5.343-6.332-4.541-15.795 1.791-21.138l19.199-16.2c5.586-4.714 13.758-4.715 19.346 0l9.527 8.038 10.594-8.938c5.586-4.714 13.758-4.714 19.346 0l21.334 18c6.332 5.342 7.134 14.806 1.792 21.137-2.967 3.517-7.206 5.328-11.473 5.328z" fill="#4c5699"/></g><g><path d="m161.414 317.676-9.956-8.74-9.773 8.58c-5.66 4.969-14.129 4.97-19.791 0l-11.566-10.153-10.492 9.21c-5.66 4.97-14.131 4.97-19.791 0l-9.42-8.269-9.419 8.269c-6.225 5.465-15.701 4.85-21.168-1.376-5.466-6.226-4.849-15.703 1.377-21.168l19.314-16.956c5.66-4.97 14.131-4.97 19.791 0l9.42 8.269 10.492-9.21c5.66-4.97 14.129-4.97 19.791 0l11.566 10.153 9.773-8.58c5.661-4.969 14.13-4.969 19.791 0l19.852 17.427c6.226 5.465 6.843 14.942 1.377 21.168-5.465 6.225-14.944 6.842-21.168 1.376z" fill="#4c5699"/></g><g fill="#313d40"><path d="m95.043 438.248c-1.071-4.001-5.184-6.374-9.186-5.303-4.001 1.072-6.375 5.185-5.303 9.186l3.106 11.591c1.07 3.995 5.178 6.377 9.186 5.303 4.001-1.072 6.375-5.185 5.303-9.186z"/><path d="m199.473 422.689-3.106-11.591c-1.072-4.001-5.185-6.375-9.186-5.303s-6.375 5.185-5.303 9.186l3.106 11.591c1.07 3.995 5.178 6.377 9.186 5.303 4.001-1.072 6.375-5.185 5.303-9.186z"/><path d="m160.673 426.862c-3.72-1.819-8.212-.28-10.033 3.441-3.821 7.811-13.644 10.465-20.882 5.595-3.441-2.312-8.1-1.399-10.409 2.037-2.312 3.437-1.4 8.097 2.036 10.409 14.816 9.965 34.922 4.505 42.729-11.45 1.821-3.72.28-8.211-3.441-10.032z"/></g><g><path d="m442.353 326.691-82.965-22.23-49.662 25.713v61.116c10.811 7.364 23.247 12.684 36.895 15.281 42.067 8.006 82.912-11.858 103.88-46.208 1.16-1.912 2.302-3.844 3.425-5.797 6.23-10.836.501-24.64-11.573-27.875z" fill="#8288cb"/><path d="m359.388 304.46-69.583-18.645c-11.779-3.156-23.44 5.422-23.938 17.606-.05 1.216-.079 2.487-.086 3.834-.171 33.95 16.724 65.491 43.945 84.033 2.857-27.66 19.934-69.884 49.662-86.828z" fill="#676fb2"/></g><g><path d="m370.58 274.965 89.244 23.913c10.013 2.683 20.3-3.151 23.21-13.101 18.279-62.485 19.899-135.224-2.834-207.256-12.773-40.472-47.224-70.32-89.127-77.045-7.398-1.23-14.808-1.676-22.13-1.395l-49.23 49.23v196.093z" fill="#8288cb"/><path d="m368.943.081c-45.506 1.75-87.603 31.73-102.342 77.978-5.489 17.222-16.502 45.674-3.521 83.764 8.754 25.689 11.271 49.648 10.708 72.166-.22 8.773 5.615 16.545 14.092 18.817l82.7 22.159c-70.916-129.139-34.982-211.44-1.637-274.884z" fill="#676fb2"/></g><g><path d="m306.702 156.743c3.14 0 6.305-.982 9.007-3.015l14.142-10.641 13.929 10.48c5.342 4.019 12.697 4.019 18.037 0l16.02-12.053 14.768 11.111c5.341 4.02 12.696 4.019 18.037 0l13.516-10.169 13.516 10.169c6.619 4.983 16.024 3.651 21.005-2.967 4.98-6.62 3.652-16.023-2.968-21.004l-22.534-16.956c-5.34-4.019-12.697-4.019-18.037 0l-13.516 10.169-14.768-11.111c-5.34-4.019-12.697-4.019-18.037 0l-16.02 12.053-13.929-10.48c-5.341-4.019-12.696-4.019-18.037 0l-23.16 17.427c-6.62 4.981-7.948 14.385-2.968 21.004 2.947 3.918 7.444 5.982 11.997 5.983z" fill="#4c5699"/></g><g><path d="m334.752 81.135c3.416 0 6.85-1.161 9.665-3.536l11.661-9.838 10.594 8.938c5.586 4.714 13.758 4.714 19.346 0l9.527-8.038 9.526 8.038c6.332 5.342 15.796 4.54 21.137-1.791 5.343-6.332 4.541-15.795-1.791-21.138l-19.199-16.2c-5.586-4.714-13.758-4.715-19.346 0l-9.527 8.038-10.594-8.938c-5.586-4.714-13.758-4.714-19.346 0l-21.334 18c-6.332 5.342-7.134 14.806-1.792 21.137 2.967 3.517 7.206 5.328 11.473 5.328z" fill="#4c5699"/></g><g><path d="m335.586 229.014 9.956-8.74 9.773 8.58c5.66 4.969 14.129 4.97 19.791 0l11.566-10.153 10.492 9.21c5.66 4.97 14.131 4.97 19.791 0l9.42-8.269 9.419 8.269c6.225 5.465 15.701 4.85 21.168-1.376 5.466-6.226 4.849-15.703-1.377-21.168l-19.314-16.956c-5.66-4.97-14.131-4.97-19.791 0l-9.42 8.269-10.492-9.21c-5.66-4.97-14.129-4.97-19.791 0l-11.566 10.153-9.773-8.58c-5.661-4.969-14.13-4.969-19.791 0l-19.852 17.427c-6.226 5.465-6.843 14.942-1.377 21.168 5.465 6.225 14.944 6.842 21.168 1.376z" fill="#4c5699"/></g><g fill="#313d40"><path d="m411.143 344.283c-4.003-1.073-8.114 1.302-9.186 5.303l-3.106 11.591c-1.072 4.001 1.302 8.113 5.303 9.186 4.003 1.073 8.114-1.303 9.186-5.303l3.106-11.591c1.072-4.002-1.302-8.114-5.303-9.186z"/><path d="m309.819 317.133c-4.002-1.073-8.114 1.302-9.186 5.303l-3.106 11.591c-1.072 4.001 1.302 8.113 5.303 9.186 4.003 1.073 8.114-1.303 9.186-5.303l3.106-11.591c1.072-4.001-1.302-8.113-5.303-9.186z"/><path d="m367.242 347.236c-7.243 4.875-17.064 2.21-20.882-5.595-1.82-3.72-6.311-5.263-10.033-3.441-3.721 1.82-5.262 6.312-3.441 10.033 7.812 15.965 27.933 21.404 42.729 11.45 3.437-2.312 4.349-6.972 2.036-10.409-2.31-3.438-6.972-4.351-10.409-2.038z"/></g></g></svg>