<svg id="Layer_1" enable-background="new 0 0 511.053 511.053" height="512" viewBox="0 0 511.053 511.053" width="512" xmlns="http://www.w3.org/2000/svg"><g><g><path d="m511.052 255.526c0 45.305-11.791 87.857-32.471 124.753-43.737 78.034-127.237 115.713-223.055 115.713-141.123 0-255.526-99.343-255.526-240.466s114.403-255.526 255.526-255.526 255.526 114.403 255.526 255.526z" fill="#4a81f6"/></g><path d="m419.289 348.275c-30.631-56.932-31.436-111.383 1.273-163.043 6.079-9.602 6.544-21.731 1.461-31.896l-10.793-21.585c-4.818-9.635-14.12-16.149-24.787-17.649-29.124-4.094-48.491-16.962-58.469-38.273-5.402-11.537-16.806-19.068-29.546-19.068h-16.191-16.191c-12.739 0-24.144 7.531-29.546 19.068-9.978 21.311-29.345 34.179-58.469 38.273-10.667 1.5-19.97 8.014-24.787 17.649l-19.475 38.95c10.857 14.214 19.098 28.645 24.8 43.288 22.272 57.187-62.583 92.635-87.354 36.485-1.528-3.463-2.977-6.958-4.347-10.48-13.825-35.548-66.392-25.732-66.849 12.406-.014 1.189-.02 2.38-.018 3.572.245 143.815 117.861 258.383 261.637 255.008 93.249-2.189 174.13-54.336 216.93-130.709 10.428-18.608-11.885-38.311-29.161-25.8-.287.208-.573.414-.856.619-9.799 7.072-23.536 3.826-29.262-6.815z" fill="#5766cb"/><g><g><path d="m373.363 324.41c-15.25-48.89-7.021-95.826 27.181-140.6l-27.622-55.244c-47.303-1.35-73.976-21.252-81.139-58.697h-75.685v254.541z" fill="#e278b1"/></g></g><g><path d="m372.117 320.254c-11.43 0-21.015-8.759-21.906-20.155-.298-3.803-.463-7.591-.494-11.361-.266-32.528 9.205-64.195 28.152-94.121l2.424-3.828-14.953-29.905-4.19-.578c-37.759-5.204-63.85-22.87-77.547-52.506l-2.152-4.658h-43.205l-2.152 4.658c-.048.102-.095.205-.143.307-4.375 9.381-18.49 6.162-18.49-4.189v-34.049h-5.093c-7.164 37.445-33.836 57.347-81.14 58.697l-27.622 55.244c47.116 61.68 44.958 127.463 0 196.807l21.146 44.779c49.393-10.02 92.509-5.766 127.323 17.37 34.813-23.137 77.93-27.39 127.322-17.37l21.146-44.779c-13.248-20.435-22.776-40.561-28.426-60.363zm-80.525 0c-1.927 0-3.836-.074-5.726-.218-12.849-.983-12.064-20.109.822-20.109v-16.048h-55.15c-2.353 0-4.53-1.29-5.623-3.373-.022-.042-.044-.084-.066-.125-2.219-4.248.83-9.34 5.622-9.34h55.216v-16.048h-68.68c-.347-2.91-.546-5.864-.546-8.867v-82.498c0-5.223 2.261-10.216 6.257-13.579 7.972-6.71 14.188-14.052 19.03-21.338 3.08-4.634 7.757-8.077 13.217-9.141 8.236-1.604 16.297 2.033 20.75 8.793 13.136 19.943 36.516 40.392 78.023 47.207l7.17 14.342c-19.024 31.439-28.521 64.709-28.241 98.961.085 10.372 1.08 20.842 2.973 31.384h-45.048z" fill="#dd4fb1"/></g><g><g><path d="m371.13 378.557c-19.102-33.642-28.922-66.956-29.185-99.019-.266-32.528 9.205-64.195 28.152-94.121l2.424-3.828-14.953-29.905-4.19-.578c-37.759-5.204-63.85-22.87-77.547-52.506l-2.152-4.658h-43.205l-2.152 4.658c-8.534 18.464-21.881 32.28-39.861 41.332 3.181 4.239 5.195 9.44 5.654 15.021 24.16-11.772 38.278-29.243 46.484-44.962h22.954c11.725 22.458 35.485 48.507 83.414 56.376l7.171 14.342c-19.024 31.439-28.521 64.709-28.241 98.961.273 33.125 9.804 67.252 28.347 101.523-7.533-.67-14.918-1.008-22.036-1.008-29.253 0-56.191 5.628-80.131 16.734-23.941-11.105-50.878-16.734-80.131-16.734-7.118 0-14.503.339-22.036 1.008 18.542-34.272 28.074-68.398 28.347-101.523.129-15.778-1.843-31.344-5.846-46.622-4.263 3.472-9.528 5.729-14.981 6.173 3.284 13.245 4.89 26.705 4.779 40.317-.263 32.063-10.083 65.377-29.186 99.019l-2.056 3.622 7.733 16.371 5.72-.663c9.463-1.097 18.725-1.654 27.526-1.654 28.226 0 53.993 5.644 76.584 16.776l3.547 1.748 3.547-1.748c22.591-11.132 48.358-16.776 76.584-16.776 8.801 0 18.064.557 27.526 1.654l5.72.663 7.733-16.371z" fill="#ffbee4"/></g></g><g><g><path d="m165.044 244.784h.083c5.18 0 9.019-4.863 7.762-9.889-4.633-18.533-12.261-36.646-22.875-54.187l7.17-14.342c16.78-2.755 30.586-7.744 41.959-14.022 2.52-1.391 4.054-4.073 4.054-6.951 0-6.053-6.479-9.923-11.785-7.012-11.536 6.329-25.099 10.582-40.639 12.724l-4.19.578-14.953 29.905 2.424 3.828c10.913 17.237 18.666 35.053 23.239 53.277.896 3.57 4.071 6.091 7.751 6.091z" fill="#ffa6e8"/></g></g><g><g><path d="m239.889 247.502h46.799v16.048h-46.799z" fill="#ffbee4"/></g></g><g><g><path d="m239.889 276.389h46.799v16.048h-46.799z" fill="#ffbee4"/></g></g><g><g><path d="m254.456 304.205h32.232v16.048h-32.232z" fill="#ffbee4"/></g></g><g><g><path d="m217.462 247.502h24.224v16.048h-24.224z" fill="#e278b1"/></g></g><g><g><path d="m217.462 276.389h24.224v16.048h-24.224z" fill="#e278b1"/></g></g><g><g><path d="m217.462 304.205h40.553v16.048h-40.553z" fill="#e278b1"/></g></g></g></svg>