<?xml version="1.0" encoding="iso-8859-1"?>
<!-- Generator: Adobe Illustrator 19.0.0, SVG Export Plug-In . SVG Version: 6.00 Build 0)  -->
<svg version="1.1" id="Capa_1" xmlns="http://www.w3.org/2000/svg" xmlns:xlink="http://www.w3.org/1999/xlink" x="0px" y="0px"
	 viewBox="0 0 512 512" style="enable-background:new 0 0 512 512;" xml:space="preserve">
<path style="fill:#BEE8FF;" d="M182.274,349.332c-42.8,0-85.6-16.293-118.182-48.875c-31.568-31.568-48.953-73.54-48.953-118.183
	S32.523,95.658,64.092,64.092c31.567-31.568,73.539-48.953,118.182-48.953s86.615,17.385,118.183,48.953
	c65.166,65.165,65.166,171.199,0,236.366C267.873,333.04,225.075,349.332,182.274,349.332z"/>
<g>
	<path style="fill:#54CBFF;" d="M182.274,15.139c-0.013,0-0.025,0-0.039,0v334.192c0.013,0,0.026,0,0.039,0
		c42.8,0,85.6-16.293,118.183-48.875c65.166-65.167,65.166-171.201,0-236.366C268.889,32.524,226.918,15.139,182.274,15.139z"/>
	<path style="fill:#54CBFF;" d="M340.777,355.994c-3.895,0-7.789-1.486-10.76-4.458l-40.369-40.369
		c-5.943-5.942-5.943-15.577,0-21.52c5.942-5.942,15.577-5.942,21.52,0l40.369,40.369c5.943,5.942,5.943,15.577,0,21.52
		C348.566,354.508,344.672,355.994,340.777,355.994z"/>
</g>
<path style="fill:#003773;" d="M455.609,512c-15.064,0-29.225-5.866-39.875-16.517l-85.717-85.717
	c-10.651-10.651-16.516-24.811-16.516-39.874c0-15.064,5.865-29.224,16.516-39.875c10.651-10.651,24.811-16.516,39.875-16.516
	c15.063,0,29.223,5.865,39.874,16.516l85.717,85.717C506.134,426.384,512,440.545,512,455.609c0,15.063-5.866,29.224-16.517,39.874
	C484.833,506.134,470.672,512,455.609,512z"/>
<g>
	<path style="fill:#0053AD;" d="M182.278,364.471c-46.677,0-93.354-17.769-128.89-53.303C18.96,276.74,0,230.966,0,182.278
		s18.96-94.462,53.388-128.89C87.815,18.96,133.59,0,182.278,0s94.462,18.96,128.891,53.388c71.07,71.069,71.07,186.709,0,257.78
		C275.632,346.703,228.956,364.471,182.278,364.471z M182.278,30.434c-40.558,0-78.689,15.793-107.37,44.474
		s-44.474,66.811-44.474,107.37s15.793,78.69,44.474,107.371c29.598,29.598,68.491,44.399,107.37,44.403
		c38.889,0.004,77.764-14.797,107.371-44.403c59.203-59.204,59.203-155.536,0-214.74C260.968,46.228,222.837,30.434,182.278,30.434z
		"/>
	<path style="fill:#0053AD;" d="M123.872,204.886h-40.98c-8.404,0-15.217-6.813-15.217-15.217s6.813-15.217,15.217-15.217h40.981
		c8.404,0,15.217,6.813,15.217,15.217S132.277,204.886,123.872,204.886z"/>
	<path style="fill:#0053AD;" d="M126.339,159.914h-3.805c-17.244,0-33.457-6.716-45.651-18.91c-5.943-5.942-5.943-15.577,0-21.52
		c5.942-5.942,15.577-5.942,21.52,0c6.446,6.446,15.015,9.996,24.13,9.996h3.805c8.404,0,15.217,6.813,15.217,15.217
		C141.557,153.1,134.743,159.914,126.339,159.914z"/>
	<path style="fill:#0053AD;" d="M87.644,264.313c-3.895,0-7.789-1.486-10.76-4.458c-5.943-5.942-5.943-15.577,0-21.52
		c12.194-12.194,28.406-18.91,45.651-18.91h3.804c8.404,0,15.217,6.813,15.217,15.217s-6.813,15.217-15.217,15.217h-3.804
		c-9.115,0-17.685,3.55-24.13,9.996C95.432,262.826,91.538,264.313,87.644,264.313z"/>
</g>
<g>
	<path style="fill:#003773;" d="M281.663,204.886h-40.98c-8.404,0-15.217-6.813-15.217-15.217s6.813-15.217,15.217-15.217h40.98
		c8.404,0,15.217,6.813,15.217,15.217S290.067,204.886,281.663,204.886z"/>
	<path style="fill:#003773;" d="M276.911,264.313c-3.895,0-7.789-1.486-10.76-4.458c-6.446-6.446-15.015-9.996-24.13-9.996h-3.804
		c-8.404,0-15.217-6.813-15.217-15.217s6.813-15.217,15.217-15.217h3.804c17.244,0,33.457,6.716,45.651,18.91
		c5.943,5.942,5.943,15.577,0,21.52C284.701,262.826,280.806,264.313,276.911,264.313z"/>
	<path style="fill:#003773;" d="M242.02,159.914h-3.804c-8.404,0-15.217-6.813-15.217-15.217c0-8.404,6.813-15.217,15.217-15.217
		h3.804c9.115,0,17.685-3.55,24.13-9.996c5.942-5.942,15.577-5.942,21.52,0c5.943,5.942,5.943,15.577,0,21.52
		C275.478,153.198,259.265,159.914,242.02,159.914z"/>
</g>
<path style="fill:#0053AD;" d="M149.274,128.743c-8.404,0-15.217-6.813-15.217-15.217V80.494c0-8.404,6.813-15.217,15.217-15.217
	s15.217,6.813,15.217,15.217v33.031C164.491,121.929,157.678,128.743,149.274,128.743z"/>
<path style="fill:#003773;" d="M215.282,128.743c-8.404,0-15.217-6.813-15.217-15.217V80.494c0-8.404,6.813-15.217,15.217-15.217
	c8.404,0,15.217,6.813,15.217,15.217v33.031C230.499,121.929,223.686,128.743,215.282,128.743z"/>
<path style="fill:#0053AD;" d="M182.965,290.219L182.965,290.219c-37.18,0-67.319-30.139-67.319-67.319v-66.463
	c0-37.179,30.139-67.319,67.319-67.319l0,0c37.179,0,67.319,30.139,67.319,67.319v66.463
	C250.283,260.08,220.144,290.219,182.965,290.219z"/>
<path style="fill:#003773;" d="M182.965,89.12L182.965,89.12L182.965,89.12v201.1l0,0l0,0c37.179,0,67.319-30.139,67.319-67.319
	v-66.463C250.283,119.259,220.144,89.12,182.965,89.12z"/>
<path style="fill:#18A7FC;" d="M115.646,164.322v58.578c0,37.179,30.139,67.319,67.319,67.319l0,0
	c37.179,0,67.319-30.139,67.319-67.319v-58.578L115.646,164.322L115.646,164.322z"/>
<path style="fill:#0074F0;" d="M182.968,290.219c37.178-0.002,67.316-30.14,67.316-67.319v-58.578h-67.316L182.968,290.219
	L182.968,290.219z"/>
<path style="fill:#003773;" d="M182.278,0c-0.014,0-0.028,0-0.043,0v30.434c0.014,0,0.028,0,0.043,0
	c40.559,0,78.69,15.793,107.371,44.474c59.203,59.203,59.203,155.535,0,214.74c-29.607,29.606-68.481,44.406-107.371,44.403
	c-0.014,0-0.028,0-0.043,0v30.42c0.014,0,0.028,0,0.043,0c46.678,0,93.355-17.769,128.891-53.303
	c71.07-71.071,71.07-186.711,0-257.78C276.74,18.96,230.966,0,182.278,0z"/>
<g>
</g>
<g>
</g>
<g>
</g>
<g>
</g>
<g>
</g>
<g>
</g>
<g>
</g>
<g>
</g>
<g>
</g>
<g>
</g>
<g>
</g>
<g>
</g>
<g>
</g>
<g>
</g>
<g>
</g>
</svg>
