<?xml version="1.0" encoding="iso-8859-1"?>
<!-- Generator: Adobe Illustrator 17.1.0, SVG Export Plug-In . SVG Version: 6.00 Build 0)  -->
<!DOCTYPE svg PUBLIC "-//W3C//DTD SVG 1.1//EN" "http://www.w3.org/Graphics/SVG/1.1/DTD/svg11.dtd">
<svg version="1.1" id="Capa_1" xmlns="http://www.w3.org/2000/svg" xmlns:xlink="http://www.w3.org/1999/xlink" x="0px" y="0px"
	 viewBox="0 0 64 64" style="enable-background:new 0 0 64 64;" xml:space="preserve">
<g>
	<path d="M40.028,38.591c0.168,0.37,0.316,0.75,0.439,1.13c0.156,0.482,0.602,0.805,1.107,0.805c0.121,0,0.24-0.019,0.358-0.056
		c0.609-0.198,0.945-0.856,0.749-1.467c-0.155-0.474-0.335-0.938-0.538-1.38c-2.142-4.684-6.85-7.71-11.997-7.71
		c-5.63,0-10.643,3.576-12.469,8.9c-0.101,0.293-0.082,0.609,0.055,0.888c0.136,0.279,0.372,0.488,0.666,0.59
		c0.594,0.204,1.275-0.129,1.479-0.723c1.506-4.384,5.632-7.328,10.27-7.328C34.387,32.24,38.265,34.733,40.028,38.591z"/>
	<path d="M47.427,33.214c-3.54-6.183-10.162-10.023-17.28-10.023c-8.017,0-15.217,4.771-18.34,12.155
		c-0.248,0.589,0.028,1.273,0.622,1.525c0.577,0.239,1.279-0.049,1.523-0.62c2.759-6.521,9.116-10.734,16.195-10.734
		c6.286,0,12.135,3.392,15.263,8.852c0.349,0.608,0.665,1.249,0.942,1.905c0.183,0.432,0.604,0.71,1.072,0.71
		c0.154,0,0.306-0.03,0.451-0.091c0.288-0.121,0.511-0.347,0.627-0.635c0.117-0.287,0.115-0.604-0.006-0.891
		C48.185,34.632,47.824,33.906,47.427,33.214z"/>
	<path d="M54.051,31.95c-4.318-9.247-13.701-15.223-23.904-15.223c-10.621,0-20.157,6.321-24.296,16.104
		c-0.248,0.59,0.029,1.274,0.621,1.525c0.583,0.245,1.283-0.049,1.523-0.619c3.773-8.921,12.468-14.684,22.151-14.684
		c9.304,0,17.859,5.446,21.794,13.878c0.126,0.273,0.249,0.546,0.365,0.826c0.184,0.433,0.604,0.711,1.072,0.711
		c0.154,0,0.307-0.03,0.452-0.091c0.287-0.121,0.509-0.346,0.627-0.633c0.116-0.288,0.115-0.604-0.008-0.893
		C54.323,32.551,54.189,32.251,54.051,31.95z"/>
	<path d="M25.524,36.738c-0.071,0.096-0.166,0.133-0.235,0.072c-0.207-0.186-0.451-0.189-0.596-0.032
		c-0.091,0.098-0.131,0.242-0.117,0.429l0.146,1.937c0.026,0.35,0.236,0.475,0.408,0.475c0.094,0,0.238-0.035,0.389-0.206
		l1.286-1.456c0.23-0.261,0.194-0.454,0.153-0.546c-0.014-0.031-0.043-0.081-0.103-0.124c-0.073-0.053,0.133-0.42,0.572-0.756
		c0.775-0.595,1.726-0.923,2.721-0.923c2.228,0,4.091,1.6,4.43,3.803c0.047,0.303,0.303,0.522,0.609,0.522l0.095-0.007
		c0.336-0.053,0.567-0.369,0.515-0.704c-0.431-2.809-2.807-4.848-5.648-4.848C28.329,34.373,26.601,35.257,25.524,36.738z"/>
	<path d="M25.104,40.258l-0.091,0.007c-0.336,0.053-0.567,0.369-0.515,0.704c0.431,2.809,2.807,4.848,5.648,4.848
		c1.818,0,3.547-0.885,4.624-2.366c0.07-0.096,0.166-0.133,0.234-0.071c0.207,0.185,0.452,0.19,0.596,0.032
		c0.091-0.099,0.131-0.242,0.117-0.429l-0.146-1.937c-0.026-0.351-0.236-0.475-0.408-0.475c-0.094,0-0.238,0.035-0.389,0.206
		l-1.286,1.456c-0.23,0.261-0.194,0.454-0.153,0.546c0.014,0.031,0.043,0.081,0.103,0.124c0.073,0.053-0.134,0.42-0.572,0.756
		c-0.775,0.595-1.726,0.923-2.72,0.923c-2.228,0-4.091-1.6-4.43-3.803C25.671,40.482,25.408,40.258,25.104,40.258z"/>
</g>
</svg>
