<?xml version="1.0" encoding="iso-8859-1"?>
<!-- Generator: Adobe Illustrator 17.1.0, SVG Export Plug-In . SVG Version: 6.00 Build 0)  -->
<!DOCTYPE svg PUBLIC "-//W3C//DTD SVG 1.1//EN" "http://www.w3.org/Graphics/SVG/1.1/DTD/svg11.dtd">
<svg version="1.1" id="Capa_1" xmlns="http://www.w3.org/2000/svg" xmlns:xlink="http://www.w3.org/1999/xlink" x="0px" y="0px"
	 viewBox="0 0 64 64" style="enable-background:new 0 0 64 64;" xml:space="preserve">
<g>
	<path d="M24.297,38.603c0,2.286,1.67,4.011,3.885,4.011c2.301,0,3.971-1.691,3.971-4.028c-0.057-2.388-1.635-3.991-3.93-3.991
		C25.912,34.594,24.297,36.242,24.297,38.603z M30.652,38.603c0,1.502-0.992,2.511-2.471,2.511c-1.381,0-2.385-1.056-2.385-2.511
		c0-1.524,0.953-2.509,2.426-2.509C29.707,36.094,30.615,37.034,30.652,38.603z"/>
	<path d="M38.541,39.384c0.156,0.482,0.602,0.805,1.107,0.805c0.121,0,0.24-0.02,0.358-0.056c0.609-0.198,0.945-0.856,0.75-1.467
		c-0.156-0.474-0.336-0.938-0.539-1.38c-1.594-3.487-4.611-6.054-8.172-7.139c-0.528-0.161-0.984,0.192-1.005,0.744l-0.015,0.38
		c-0.021,0.552,0.396,1.11,0.915,1.299c2.684,0.982,4.935,3,6.162,5.683C38.269,38.624,38.418,39.004,38.541,39.384z"/>
	<path d="M25.024,19.944l0.087,2.15c0.023,0.552-0.402,1.065-0.943,1.177c-6.323,1.307-11.703,5.626-14.288,11.738
		c-0.248,0.589,0.027,1.273,0.621,1.525c0.578,0.239,1.279-0.049,1.523-0.62c2.231-5.276,6.823-9.032,12.242-10.277
		c0.538-0.124,0.999,0.251,1.021,0.803l0.1,2.445c0.023,0.552-0.398,1.09-0.928,1.248c-4.009,1.192-7.304,4.246-8.709,8.343
		c-0.102,0.293-0.082,0.609,0.055,0.888c0.135,0.279,0.371,0.488,0.666,0.59c0.594,0.204,1.275-0.129,1.479-0.723
		c1.092-3.182,3.569-5.603,6.619-6.691c0.52-0.186,0.961-0.157,0.968,0.01l0.012,0.302c0.018,0.403,0.348,0.719,0.75,0.719h3.887
		c0.404,0,0.734-0.316,0.75-0.721l0.247-6.398c0.021-0.552,0.48-0.925,1.018-0.799c4.699,1.098,8.828,4.098,11.28,8.38
		c0.35,0.608,0.666,1.249,0.943,1.905c0.184,0.432,0.604,0.71,1.072,0.71c0.154,0,0.305-0.03,0.451-0.091
		c0.287-0.121,0.51-0.347,0.627-0.635c0.117-0.287,0.115-0.604-0.006-0.891c-0.312-0.737-0.674-1.463-1.07-2.155
		c-2.851-4.98-7.703-8.43-13.202-9.587c-0.541-0.114-0.966-0.629-0.945-1.181l0.083-2.163c0.021-0.552,0.482-0.94,1.026-0.842
		c7.594,1.372,14.225,6.362,17.552,13.491c0.127,0.272,0.25,0.546,0.365,0.826c0.184,0.433,0.605,0.711,1.072,0.711
		c0.154,0,0.307-0.03,0.453-0.091c0.287-0.121,0.508-0.346,0.627-0.633c0.115-0.288,0.115-0.604-0.008-0.893
		c-0.127-0.303-0.262-0.603-0.398-0.903c-3.698-7.917-11.111-13.426-19.57-14.849c-0.545-0.092-0.979-0.425-0.965-0.768l0.024-0.621
		c0.027-0.74-0.236-1.438-0.74-1.962c-0.506-0.526-1.193-0.816-1.934-0.816h-1.434c-0.74,0-1.428,0.29-1.934,0.816
		c-0.504,0.527-0.766,1.224-0.734,1.962c0,0,0.011,0.278,0.025,0.62c0.014,0.343-0.419,0.674-0.964,0.764
		c-8.828,1.457-16.408,7.303-19.976,15.736c-0.248,0.59,0.029,1.274,0.621,1.525c0.584,0.245,1.283-0.049,1.523-0.619
		C9.282,25.802,16.07,20.505,23.995,19.1C24.539,19.003,25.002,19.393,25.024,19.944z M27.506,14.097h1.434
		c0.33,0,0.631,0.126,0.852,0.356c0.221,0.228,0.334,0.535,0.322,0.863l-0.608,15.756c-0.021,0.552-0.486,0.999-1.039,0.999h-0.445
		c-0.552,0-1.018-0.447-1.041-0.999l-0.643-15.759c-0.014-0.327,0.1-0.634,0.318-0.862C26.875,14.223,27.178,14.097,27.506,14.097z"
		/>
</g>
</svg>
