<?xml version="1.0" standalone="no"?><!DOCTYPE svg PUBLIC "-//W3C//DTD SVG 1.1//EN" "http://www.w3.org/Graphics/SVG/1.1/DTD/svg11.dtd"><svg t="1624885191819" class="icon" viewBox="0 0 1064 1024" version="1.1" xmlns="http://www.w3.org/2000/svg" p-id="1231" data-darkreader-inline-fill="" xmlns:xlink="http://www.w3.org/1999/xlink" width="49.875" height="48"><defs><style type="text/css"></style></defs><path fill="%s" d="M966.376103 638.19207a380.383302 380.383302 0 0 0 3.441563-51.985718v-1.449079A439.071011 439.071011 0 0 0 695.036014 178.109409a82.959787 82.959787 0 0 0 0-9.60015 164.289359 164.289359 0 1 0-328.578719-8.332205 148.349488 148.349488 0 0 0 0 18.11349A438.889877 438.889877 0 0 0 92.762452 584.757273a403.93084 403.93084 0 0 0 3.441564 54.340471 166.100709 166.100709 0 0 0-44.921457 30.611799 164.289359 164.289359 0 0 0 108.680943 283.476128h4.166103a164.289359 164.289359 0 0 0 90.567453-27.351371 437.984202 437.984202 0 0 0 552.642597 0 160.123257 160.123257 0 0 0 86.944755 27.713641h4.166103a164.289359 164.289359 0 0 0 67.382185-314.269062zM403.227681 161.082728A128.062378 128.062378 0 0 1 531.290059 36.280778h3.260428a126.794434 126.794434 0 0 1 124.80195 127.881244v3.441563a125.16422 125.16422 0 0 1-5.615182 33.872227 120.998117 120.998117 0 0 1-13.947387 30.792934 130.960537 130.960537 0 0 1-20.28711 24.815482 55.608416 55.608416 0 0 1-6.158587 5.252913 126.794434 126.794434 0 0 1-164.289359 0 136.575719 136.575719 0 0 1-10.505825-9.96242 130.960537 130.960537 0 0 1-15.939871-20.28711 126.794434 126.794434 0 0 1-19.381435-67.019915z m-147.443813 716.388552a126.794434 126.794434 0 0 1-184.2142-1.086809 127.700109 127.700109 0 0 1 30.792934-200.154071 116.469744 116.469744 0 0 1 34.415632-13.041713 125.707625 125.707625 0 0 1 27.532506-3.079294h4.166103a121.722657 121.722657 0 0 1 38.76287 7.426532 126.794434 126.794434 0 0 1 85.31454 123.896275 112.122507 112.122507 0 0 1-2.535888 24.815482 117.556554 117.556554 0 0 1-14.671928 36.226981 124.983085 124.983085 0 0 1-19.562569 24.996617z m275.506191 108.680944a400.670411 400.670411 0 0 1-247.792551-85.676811 163.021415 163.021415 0 0 0 19.019165-24.090942 157.225098 157.225098 0 0 0 16.483277-33.147688 161.210066 161.210066 0 0 0 9.781285-51.623448A164.289359 164.289359 0 0 0 199.450912 627.686245a149.798567 149.798567 0 0 0-31.336339-3.803833H163.223931a156.138289 156.138289 0 0 0-31.879744 3.260429 409.908292 409.908292 0 0 1-2.173619-42.385568 402.84403 402.84403 0 0 1 245.437798-370.420882 157.768503 157.768503 0 0 0 13.585118 30.430664 147.987218 147.987218 0 0 0 21.917323 30.249529 26.989101 26.989101 0 0 0 2.173619 2.535889 164.289359 164.289359 0 0 0 114.83953 51.080043h4.347238a163.021415 163.021415 0 0 0 113.028181-45.283726 85.67681 85.67681 0 0 0 7.969936-8.332206 152.87786 152.87786 0 0 0 22.098459-30.068394c2.535889-4.528373 4.890642-9.23788 7.064261-13.947388s4.528373-11.049229 6.339722-16.664411a390.164587 390.164587 0 0 1 78.612549 44.378051 401.757221 401.757221 0 0 1 167.006383 326.042831v1.449079a382.375786 382.375786 0 0 1-2.173619 40.936489 144.907925 144.907925 0 0 0-28.257045-3.260429h-3.622699a156.138289 156.138289 0 0 0-36.226981 3.984968 160.847796 160.847796 0 0 0-76.8012 41.117624 164.832764 164.832764 0 0 0-41.661028 174.432914A167.730923 167.730923 0 0 0 760.96912 876.746741a169.542272 169.542272 0 0 0 18.11349 24.090942 399.402467 399.402467 0 0 1-247.792551 86.03908z m364.44343-70.642614a126.794434 126.794434 0 0 1-59.955653-16.664411 125.345355 125.345355 0 0 1-28.80045-22.279593 112.122507 112.122507 0 0 1-18.113491-23.909808 113.571586 113.571586 0 0 1-14.309658-36.226981 114.83953 114.83953 0 0 1-3.079293-30.611799 126.794434 126.794434 0 0 1 39.849679-89.661778 125.52649 125.52649 0 0 1 44.378052-27.351371 121.903792 121.903792 0 0 1 38.76287-7.607666h8.332206a114.83953 114.83953 0 0 1 23.728672 2.898158 121.903792 121.903792 0 0 1 34.234498 12.679444 122.447196 122.447196 0 0 1 31.698608 24.090942 126.794434 126.794434 0 0 1 35.140172 90.567453 128.786918 128.786918 0 0 1-131.866212 124.80195z" p-id="1232"></path><path fill="%s" d="M882.872911 586.206352a18.113491 18.113491 0 0 1-18.11349-18.113491A332.744822 332.744822 0 0 0 740.500875 326.096627a18.113491 18.113491 0 0 1-3.803833-24.815482 18.113491 18.113491 0 0 1 25.902292-3.984968 369.696343 369.696343 0 0 1 138.568203 270.25328 18.113491 18.113491 0 0 1-18.294626 18.656895z" p-id="1233"></path></svg>