<?xml version="1.0" standalone="no"?><!DOCTYPE svg PUBLIC "-//W3C//DTD SVG 1.1//EN" "http://www.w3.org/Graphics/SVG/1.1/DTD/svg11.dtd"><svg t="1624886839034" class="icon" viewBox="0 0 1024 1024" version="1.1" xmlns="http://www.w3.org/2000/svg" p-id="3623" xmlns:xlink="http://www.w3.org/1999/xlink" width="48" height="48"><defs><style type="text/css"></style></defs><path d="M830.4 457.9H193.6c-26.5 0-48-21.5-48-48s21.5-48 48-48h636.8c26.5 0 48 21.5 48 48s-21.5 48-48 48z" fill="%s" p-id="3624"></path><path d="M193.6 457.9c-12.3 0-24.6-4.7-33.9-14.1-18.8-18.8-18.8-49.1 0-67.9L339.6 196c18.8-18.8 49.1-18.8 67.9 0s18.8 49.1 0 67.9l-180 180c-9.3 9.4-21.6 14-33.9 14zM830.4 662.1H193.6c-26.5 0-48-21.5-48-48s21.5-48 48-48h636.8c26.5 0 48 21.5 48 48s-21.5 48-48 48z" fill="%s" p-id="3625"></path><path d="M650.5 841.9c-12.3 0-24.6-4.7-33.9-14.1-18.8-18.8-18.8-49.2 0-67.9L796.5 580c18.8-18.8 49.1-18.8 67.9 0s18.8 49.2 0 67.9l-180 180c-9.4 9.4-21.6 14-33.9 14z" fill="%s" p-id="3626"></path></svg>