<?xml version="1.0" standalone="no"?><!DOCTYPE svg PUBLIC "-//W3C//DTD SVG 1.1//EN" "http://www.w3.org/Graphics/SVG/1.1/DTD/svg11.dtd"><svg t="1623724484097" class="icon" viewBox="0 0 1024 1024" version="1.1" xmlns="http://www.w3.org/2000/svg" p-id="17182" xmlns:xlink="http://www.w3.org/1999/xlink" width="48" height="48"><defs><style type="text/css"></style></defs><path d="M512.26 508.797m-448.047 0a448.047 448.047 0 1 0 896.094 0 448.047 448.047 0 1 0-896.094 0Z" fill="#E0E0D1" p-id="17183"></path><path d="M617.271 580.957V380.631c38.377-12.83 63.007-32.505 63.007-54.602 0-38.664-75.224-56.006-168.018-56.006s-168.018 17.342-168.018 56.006c0 22.097 24.63 41.772 63.007 54.602v200.326c-38.377 12.83-63.007 32.505-63.007 54.602 0 34.68 60.58 63.392 140.015 68.958v99.06l28.003 56.006 28.003-56.006v-99.06c79.434-5.566 140.015-34.278 140.015-68.958-0.001-22.097-24.631-41.772-63.007-54.602z" fill="#231F20" p-id="17184"></path><path d="M344.242 607.556a168.018 70.007 0 1 0 336.036 0 168.018 70.007 0 1 0-336.036 0Z" fill="#C75C5C" p-id="17185"></path><path d="M680.277 298.026c0 38.664-75.224 70.007-168.018 70.007s-168.018-31.343-168.018-70.007 75.224-56.006 168.018-56.006 168.018 17.342 168.018 56.006z" fill="#C75C5C" p-id="17186"></path><path d="M414.249 340.779H610.27v280.03H414.249z" fill="#C75C5C" p-id="17187"></path><path d="M484.257 775.574l28.003 56.006 28.003-56.006V635.559h-56.006z" fill="#4F5D73" p-id="17188"></path><path d="M484.257 638.184a28.003 20.127 0 1 0 56.006 0 28.003 20.127 0 1 0-56.006 0Z" fill="#4F5D73" p-id="17189"></path></svg>